<?xml version="1.0" encoding="ISO-8859-1" ?>
<svg xmlns="http://www.w3.org/2000/svg"
     xmlns:xlink="http://www.w3.org/1999/xlink"
     version="1.1"
     baseProfile="full" width="640" height="400"><title>Kiviat diagram for +SDMetrics.com.sdmetrics.model.XMIReader.ProgressMessageHandler</title><desc>Kiviat diagram showing the metric values for element SDMetrics.com.sdmetrics.model.XMIReader.ProgressMessageHandler.</desc><text x="638" y="382" style="fill: rgb(51,51,51); text-anchor: end; baseline-shift: -100%; font-size: 12" >SDMetrics.com.sdmetrics.model.XMIReader.ProgressMessageHandler</text><path d=" M 320,193 L 320,96 L 420,193 Z" style="stroke:rgb(230,230,230); fill:rgb(230,230,230)" /><path d="M 320,96 L 420,193" style="stroke:rgb(51,51,51)" /><path d=" M 320,193 L 320,96 L 420,193 Z" style="stroke:rgb(199,199,199); fill:rgb(199,199,199)" /><path d="M 320,96 L 420,193" style="stroke:rgb(51,51,51)" /><path d=" M 320,193 L 320,96 L 420,193 Z" style="stroke:rgb(168,168,168); fill:rgb(168,168,168)" /><path d="M 320,96 L 420,193" style="stroke:rgb(51,51,51)" /><path d=" M 320,193 L 320,96 L 420,193 Z" style="stroke:rgb(138,138,138); fill:rgb(138,138,138)" /><path d="M 320,96 L 420,193" style="stroke:rgb(51,51,51)" /><path d=" M 320,193 L 320,96 L 420,193 Z" style="stroke:rgb(107,107,107); fill:rgb(107,107,107)" /><path d="M 320,96 L 420,193" style="stroke:rgb(51,51,51)" /><path d=" M 320,193 L 320,173 L 348,193 Z" style="stroke:rgb(77,77,77); fill:rgb(77,77,77)" /><path d="M 320,173 L 348,193" style="stroke:rgb(51,51,51)" /><path d=" M 320,193 L 420,193 L 320,366 Z" style="stroke:rgb(230,230,230); fill:rgb(230,230,230)" /><path d="M 420,193 L 320,366" style="stroke:rgb(51,51,51)" /><path d=" M 320,193 L 420,193 L 320,366 Z" style="stroke:rgb(199,199,199); fill:rgb(199,199,199)" /><path d="M 420,193 L 320,366" style="stroke:rgb(51,51,51)" /><path d=" M 320,193 L 420,193 L 320,366 Z" style="stroke:rgb(168,168,168); fill:rgb(168,168,168)" /><path d="M 420,193 L 320,366" style="stroke:rgb(51,51,51)" /><path d=" M 320,193 L 420,193 L 320,366 Z" style="stroke:rgb(138,138,138); fill:rgb(138,138,138)" /><path d="M 420,193 L 320,366" style="stroke:rgb(51,51,51)" /><path d=" M 320,193 L 420,193 L 320,366 Z" style="stroke:rgb(107,107,107); fill:rgb(107,107,107)" /><path d="M 420,193 L 320,366" style="stroke:rgb(51,51,51)" /><path d=" M 320,193 L 348,193 L 320,366 Z" style="stroke:rgb(77,77,77); fill:rgb(77,77,77)" /><path d="M 348,193 L 320,366" style="stroke:rgb(51,51,51)" /><path d=" M 320,193 L 320,366 L 190,193 Z" style="stroke:rgb(230,230,230); fill:rgb(230,230,230)" /><path d="M 320,366 L 190,193" style="stroke:rgb(51,51,51)" /><path d=" M 320,193 L 320,366 L 190,193 Z" style="stroke:rgb(199,199,199); fill:rgb(199,199,199)" /><path d="M 320,366 L 190,193" style="stroke:rgb(51,51,51)" /><path d=" M 320,193 L 320,366 L 190,193 Z" style="stroke:rgb(168,168,168); fill:rgb(168,168,168)" /><path d="M 320,366 L 190,193" style="stroke:rgb(51,51,51)" /><path d=" M 320,193 L 320,366 L 190,193 Z" style="stroke:rgb(138,138,138); fill:rgb(138,138,138)" /><path d="M 320,366 L 190,193" style="stroke:rgb(51,51,51)" /><path d=" M 320,193 L 320,366 L 190,193 Z" style="stroke:rgb(107,107,107); fill:rgb(107,107,107)" /><path d="M 320,366 L 190,193" style="stroke:rgb(51,51,51)" /><path d=" M 320,193 L 320,366 L 233,193 Z" style="stroke:rgb(77,77,77); fill:rgb(77,77,77)" /><path d="M 320,366 L 233,193" style="stroke:rgb(51,51,51)" /><path d=" M 320,193 L 190,193 L 320,96 Z" style="stroke:rgb(230,230,230); fill:rgb(230,230,230)" /><path d="M 190,193 L 320,96" style="stroke:rgb(51,51,51)" /><path d=" M 320,193 L 190,193 L 320,96 Z" style="stroke:rgb(199,199,199); fill:rgb(199,199,199)" /><path d="M 190,193 L 320,96" style="stroke:rgb(51,51,51)" /><path d=" M 320,193 L 190,193 L 320,96 Z" style="stroke:rgb(168,168,168); fill:rgb(168,168,168)" /><path d="M 190,193 L 320,96" style="stroke:rgb(51,51,51)" /><path d=" M 320,193 L 190,193 L 320,96 Z" style="stroke:rgb(138,138,138); fill:rgb(138,138,138)" /><path d="M 190,193 L 320,96" style="stroke:rgb(51,51,51)" /><path d=" M 320,193 L 190,193 L 320,96 Z" style="stroke:rgb(107,107,107); fill:rgb(107,107,107)" /><path d="M 190,193 L 320,96" style="stroke:rgb(51,51,51)" /><path d=" M 320,193 L 233,193 L 320,173 Z" style="stroke:rgb(77,77,77); fill:rgb(77,77,77)" /><path d="M 233,193 L 320,173" style="stroke:rgb(51,51,51)" /><path d="M 320,193 L 320,20" style="stroke:rgb(51,51,51); stroke-width:1; stroke-dasharray:3" /><text x="322" y="20" style="fill: rgb(51,51,51)" >NumOps</text><path d="M 320,193 L 493,193" style="stroke:rgb(51,51,51); stroke-width:1; stroke-dasharray:3" /><text x="495" y="193" style="fill: rgb(51,51,51)" >EC_Par</text><path d="M 320,193 L 320,366" style="stroke:rgb(51,51,51); stroke-width:1; stroke-dasharray:3" /><text x="322" y="366" style="fill: rgb(51,51,51); baseline-shift: -100%" >Assoc</text><path d="M 320,193 L 147,193" style="stroke:rgb(51,51,51); stroke-width:1; stroke-dasharray:3" /><text x="145" y="193" style="fill: rgb(51,51,51); text-anchor: end" >NumDirClients</text><path d="M 320,193 L 320,193" style="stroke:rgb(51,51,51); stroke-width:3" /><path d="M 320,193 L 320,366" style="stroke:rgb(51,51,51); stroke-width:3" /><path d="M 320,366 L 320,193" style="stroke:rgb(51,51,51); stroke-width:3" /><path d="M 320,193 L 320,193" style="stroke:rgb(51,51,51); stroke-width:3" /></svg>