<?xml version="1.0" encoding="ISO-8859-1" ?>
<svg xmlns="http://www.w3.org/2000/svg"
     xmlns:xlink="http://www.w3.org/1999/xlink"
     version="1.1"
     baseProfile="full" width="640" height="400"><title>Kiviat diagram for +SDMetrics.com.sdmetrics.output</title><desc>Kiviat diagram showing the metric values for element SDMetrics.com.sdmetrics.output.</desc><text x="638" y="382" style="fill: rgb(51,51,51); text-anchor: end; baseline-shift: -100%; font-size: 12" >SDMetrics.com.sdmetrics.output</text><path d=" M 320,193 L 320,88 L 390,34 Z" style="stroke:rgb(230,230,230); fill:rgb(230,230,230)" /><path d="M 320,88 L 390,34" style="stroke:rgb(51,51,51)" /><path d=" M 320,193 L 320,88 L 390,34 Z" style="stroke:rgb(199,199,199); fill:rgb(199,199,199)" /><path d="M 320,88 L 390,34" style="stroke:rgb(51,51,51)" /><path d=" M 320,193 L 320,88 L 390,34 Z" style="stroke:rgb(168,168,168); fill:rgb(168,168,168)" /><path d="M 320,88 L 390,34" style="stroke:rgb(51,51,51)" /><path d=" M 320,193 L 320,88 L 390,34 Z" style="stroke:rgb(138,138,138); fill:rgb(138,138,138)" /><path d="M 320,88 L 390,34" style="stroke:rgb(51,51,51)" /><path d=" M 320,193 L 320,164 L 374,69 Z" style="stroke:rgb(107,107,107); fill:rgb(107,107,107)" /><path d="M 320,164 L 374,69" style="stroke:rgb(51,51,51)" /><path d=" M 320,193 L 320,179 L 326,177 Z" style="stroke:rgb(77,77,77); fill:rgb(77,77,77)" /><path d="M 320,179 L 326,177" style="stroke:rgb(51,51,51)" /><path d=" M 320,193 L 390,34 L 412,109 Z" style="stroke:rgb(230,230,230); fill:rgb(230,230,230)" /><path d="M 390,34 L 412,109" style="stroke:rgb(51,51,51)" /><path d=" M 320,193 L 390,34 L 412,109 Z" style="stroke:rgb(199,199,199); fill:rgb(199,199,199)" /><path d="M 390,34 L 412,109" style="stroke:rgb(51,51,51)" /><path d=" M 320,193 L 390,34 L 412,109 Z" style="stroke:rgb(168,168,168); fill:rgb(168,168,168)" /><path d="M 390,34 L 412,109" style="stroke:rgb(51,51,51)" /><path d=" M 320,193 L 390,34 L 412,109 Z" style="stroke:rgb(138,138,138); fill:rgb(138,138,138)" /><path d="M 390,34 L 412,109" style="stroke:rgb(51,51,51)" /><path d=" M 320,193 L 374,69 L 368,149 Z" style="stroke:rgb(107,107,107); fill:rgb(107,107,107)" /><path d="M 374,69 L 368,149" style="stroke:rgb(51,51,51)" /><path d=" M 320,193 L 326,177 L 342,173 Z" style="stroke:rgb(77,77,77); fill:rgb(77,77,77)" /><path d="M 326,177 L 342,173" style="stroke:rgb(51,51,51)" /><path d=" M 320,193 L 412,109 L 402,166 Z" style="stroke:rgb(230,230,230); fill:rgb(230,230,230)" /><path d="M 412,109 L 402,166" style="stroke:rgb(51,51,51)" /><path d=" M 320,193 L 412,109 L 402,166 Z" style="stroke:rgb(199,199,199); fill:rgb(199,199,199)" /><path d="M 412,109 L 402,166" style="stroke:rgb(51,51,51)" /><path d=" M 320,193 L 412,109 L 402,166 Z" style="stroke:rgb(168,168,168); fill:rgb(168,168,168)" /><path d="M 412,109 L 402,166" style="stroke:rgb(51,51,51)" /><path d=" M 320,193 L 412,109 L 402,166 Z" style="stroke:rgb(138,138,138); fill:rgb(138,138,138)" /><path d="M 412,109 L 402,166" style="stroke:rgb(51,51,51)" /><path d=" M 320,193 L 368,149 L 320,193 Z" style="stroke:rgb(107,107,107); fill:rgb(107,107,107)" /><path d="M 368,149 L 320,193" style="stroke:rgb(51,51,51)" /><path d=" M 320,193 L 342,173 L 320,193 Z" style="stroke:rgb(77,77,77); fill:rgb(77,77,77)" /><path d="M 342,173 L 320,193" style="stroke:rgb(51,51,51)" /><path d=" M 320,193 L 402,166 L 434,205 Z" style="stroke:rgb(230,230,230); fill:rgb(230,230,230)" /><path d="M 402,166 L 434,205" style="stroke:rgb(51,51,51)" /><path d=" M 320,193 L 402,166 L 434,205 Z" style="stroke:rgb(199,199,199); fill:rgb(199,199,199)" /><path d="M 402,166 L 434,205" style="stroke:rgb(51,51,51)" /><path d=" M 320,193 L 402,166 L 434,205 Z" style="stroke:rgb(168,168,168); fill:rgb(168,168,168)" /><path d="M 402,166 L 434,205" style="stroke:rgb(51,51,51)" /><path d=" M 320,193 L 402,166 L 434,205 Z" style="stroke:rgb(138,138,138); fill:rgb(138,138,138)" /><path d="M 402,166 L 434,205" style="stroke:rgb(51,51,51)" /><path d=" M 320,193 L 320,193 L 342,195 Z" style="stroke:rgb(107,107,107); fill:rgb(107,107,107)" /><path d="M 320,193 L 342,195" style="stroke:rgb(51,51,51)" /><path d=" M 320,193 L 320,193 L 325,193 Z" style="stroke:rgb(77,77,77); fill:rgb(77,77,77)" /><path d="M 320,193 L 325,193" style="stroke:rgb(51,51,51)" /><path d=" M 320,193 L 434,205 L 468,278 Z" style="stroke:rgb(230,230,230); fill:rgb(230,230,230)" /><path d="M 434,205 L 468,278" style="stroke:rgb(51,51,51)" /><path d=" M 320,193 L 434,205 L 468,278 Z" style="stroke:rgb(199,199,199); fill:rgb(199,199,199)" /><path d="M 434,205 L 468,278" style="stroke:rgb(51,51,51)" /><path d=" M 320,193 L 434,205 L 468,278 Z" style="stroke:rgb(168,168,168); fill:rgb(168,168,168)" /><path d="M 434,205 L 468,278" style="stroke:rgb(51,51,51)" /><path d=" M 320,193 L 434,205 L 468,278 Z" style="stroke:rgb(138,138,138); fill:rgb(138,138,138)" /><path d="M 434,205 L 468,278" style="stroke:rgb(51,51,51)" /><path d=" M 320,193 L 342,195 L 383,229 Z" style="stroke:rgb(107,107,107); fill:rgb(107,107,107)" /><path d="M 342,195 L 383,229" style="stroke:rgb(51,51,51)" /><path d=" M 320,193 L 325,193 L 349,210 Z" style="stroke:rgb(77,77,77); fill:rgb(77,77,77)" /><path d="M 325,193 L 349,210" style="stroke:rgb(51,51,51)" /><path d=" M 320,193 L 468,278 L 387,286 Z" style="stroke:rgb(230,230,230); fill:rgb(230,230,230)" /><path d="M 468,278 L 387,286" style="stroke:rgb(51,51,51)" /><path d=" M 320,193 L 468,278 L 387,286 Z" style="stroke:rgb(199,199,199); fill:rgb(199,199,199)" /><path d="M 468,278 L 387,286" style="stroke:rgb(51,51,51)" /><path d=" M 320,193 L 468,278 L 387,286 Z" style="stroke:rgb(168,168,168); fill:rgb(168,168,168)" /><path d="M 468,278 L 387,286" style="stroke:rgb(51,51,51)" /><path d=" M 320,193 L 468,278 L 387,286 Z" style="stroke:rgb(138,138,138); fill:rgb(138,138,138)" /><path d="M 468,278 L 387,286" style="stroke:rgb(51,51,51)" /><path d=" M 320,193 L 383,229 L 334,213 Z" style="stroke:rgb(107,107,107); fill:rgb(107,107,107)" /><path d="M 383,229 L 334,213" style="stroke:rgb(51,51,51)" /><path d=" M 320,193 L 349,210 L 324,199 Z" style="stroke:rgb(77,77,77); fill:rgb(77,77,77)" /><path d="M 349,210 L 324,199" style="stroke:rgb(51,51,51)" /><path d=" M 320,193 L 387,286 L 354,355 Z" style="stroke:rgb(230,230,230); fill:rgb(230,230,230)" /><path d="M 387,286 L 354,355" style="stroke:rgb(51,51,51)" /><path d=" M 320,193 L 387,286 L 354,355 Z" style="stroke:rgb(199,199,199); fill:rgb(199,199,199)" /><path d="M 387,286 L 354,355" style="stroke:rgb(51,51,51)" /><path d=" M 320,193 L 387,286 L 354,355 Z" style="stroke:rgb(168,168,168); fill:rgb(168,168,168)" /><path d="M 387,286 L 354,355" style="stroke:rgb(51,51,51)" /><path d=" M 320,193 L 387,286 L 354,355 Z" style="stroke:rgb(138,138,138); fill:rgb(138,138,138)" /><path d="M 387,286 L 354,355" style="stroke:rgb(51,51,51)" /><path d=" M 320,193 L 334,213 L 337,277 Z" style="stroke:rgb(107,107,107); fill:rgb(107,107,107)" /><path d="M 334,213 L 337,277" style="stroke:rgb(51,51,51)" /><path d=" M 320,193 L 324,199 L 324,214 Z" style="stroke:rgb(77,77,77); fill:rgb(77,77,77)" /><path d="M 324,199 L 324,214" style="stroke:rgb(51,51,51)" /><path d=" M 320,193 L 354,355 L 284,362 Z" style="stroke:rgb(230,230,230); fill:rgb(230,230,230)" /><path d="M 354,355 L 284,362" style="stroke:rgb(51,51,51)" /><path d=" M 320,193 L 354,355 L 284,362 Z" style="stroke:rgb(199,199,199); fill:rgb(199,199,199)" /><path d="M 354,355 L 284,362" style="stroke:rgb(51,51,51)" /><path d=" M 320,193 L 354,355 L 284,362 Z" style="stroke:rgb(168,168,168); fill:rgb(168,168,168)" /><path d="M 354,355 L 284,362" style="stroke:rgb(51,51,51)" /><path d=" M 320,193 L 354,355 L 284,362 Z" style="stroke:rgb(138,138,138); fill:rgb(138,138,138)" /><path d="M 354,355 L 284,362" style="stroke:rgb(51,51,51)" /><path d=" M 320,193 L 337,277 L 284,362 Z" style="stroke:rgb(107,107,107); fill:rgb(107,107,107)" /><path d="M 337,277 L 284,362" style="stroke:rgb(51,51,51)" /><path d=" M 320,193 L 324,214 L 295,309 Z" style="stroke:rgb(77,77,77); fill:rgb(77,77,77)" /><path d="M 324,214 L 295,309" style="stroke:rgb(51,51,51)" /><path d=" M 320,193 L 284,362 L 218,332 Z" style="stroke:rgb(230,230,230); fill:rgb(230,230,230)" /><path d="M 284,362 L 218,332" style="stroke:rgb(51,51,51)" /><path d=" M 320,193 L 284,362 L 218,332 Z" style="stroke:rgb(199,199,199); fill:rgb(199,199,199)" /><path d="M 284,362 L 218,332" style="stroke:rgb(51,51,51)" /><path d=" M 320,193 L 284,362 L 218,332 Z" style="stroke:rgb(168,168,168); fill:rgb(168,168,168)" /><path d="M 284,362 L 218,332" style="stroke:rgb(51,51,51)" /><path d=" M 320,193 L 284,362 L 218,332 Z" style="stroke:rgb(138,138,138); fill:rgb(138,138,138)" /><path d="M 284,362 L 218,332" style="stroke:rgb(51,51,51)" /><path d=" M 320,193 L 284,362 L 302,217 Z" style="stroke:rgb(107,107,107); fill:rgb(107,107,107)" /><path d="M 284,362 L 302,217" style="stroke:rgb(51,51,51)" /><path d=" M 320,193 L 295,309 L 315,199 Z" style="stroke:rgb(77,77,77); fill:rgb(77,77,77)" /><path d="M 295,309 L 315,199" style="stroke:rgb(51,51,51)" /><path d=" M 320,193 L 218,332 L 170,279 Z" style="stroke:rgb(230,230,230); fill:rgb(230,230,230)" /><path d="M 218,332 L 170,279" style="stroke:rgb(51,51,51)" /><path d=" M 320,193 L 218,332 L 170,279 Z" style="stroke:rgb(199,199,199); fill:rgb(199,199,199)" /><path d="M 218,332 L 170,279" style="stroke:rgb(51,51,51)" /><path d=" M 320,193 L 218,332 L 170,279 Z" style="stroke:rgb(168,168,168); fill:rgb(168,168,168)" /><path d="M 218,332 L 170,279" style="stroke:rgb(51,51,51)" /><path d=" M 320,193 L 218,332 L 170,279 Z" style="stroke:rgb(138,138,138); fill:rgb(138,138,138)" /><path d="M 218,332 L 170,279" style="stroke:rgb(51,51,51)" /><path d=" M 320,193 L 302,217 L 245,236 Z" style="stroke:rgb(107,107,107); fill:rgb(107,107,107)" /><path d="M 302,217 L 245,236" style="stroke:rgb(51,51,51)" /><path d=" M 320,193 L 315,199 L 255,230 Z" style="stroke:rgb(77,77,77); fill:rgb(77,77,77)" /><path d="M 315,199 L 255,230" style="stroke:rgb(51,51,51)" /><path d=" M 320,193 L 170,279 L 147,211 Z" style="stroke:rgb(230,230,230); fill:rgb(230,230,230)" /><path d="M 170,279 L 147,211" style="stroke:rgb(51,51,51)" /><path d=" M 320,193 L 170,279 L 147,211 Z" style="stroke:rgb(199,199,199); fill:rgb(199,199,199)" /><path d="M 170,279 L 147,211" style="stroke:rgb(51,51,51)" /><path d=" M 320,193 L 170,279 L 147,211 Z" style="stroke:rgb(168,168,168); fill:rgb(168,168,168)" /><path d="M 170,279 L 147,211" style="stroke:rgb(51,51,51)" /><path d=" M 320,193 L 170,279 L 147,211 Z" style="stroke:rgb(138,138,138); fill:rgb(138,138,138)" /><path d="M 170,279 L 147,211" style="stroke:rgb(51,51,51)" /><path d=" M 320,193 L 245,236 L 147,211 Z" style="stroke:rgb(107,107,107); fill:rgb(107,107,107)" /><path d="M 245,236 L 147,211" style="stroke:rgb(51,51,51)" /><path d=" M 320,193 L 255,230 L 216,203 Z" style="stroke:rgb(77,77,77); fill:rgb(77,77,77)" /><path d="M 255,230 L 216,203" style="stroke:rgb(51,51,51)" /><path d=" M 320,193 L 147,211 L 155,139 Z" style="stroke:rgb(230,230,230); fill:rgb(230,230,230)" /><path d="M 147,211 L 155,139" style="stroke:rgb(51,51,51)" /><path d=" M 320,193 L 147,211 L 155,139 Z" style="stroke:rgb(199,199,199); fill:rgb(199,199,199)" /><path d="M 147,211 L 155,139" style="stroke:rgb(51,51,51)" /><path d=" M 320,193 L 147,211 L 155,139 Z" style="stroke:rgb(168,168,168); fill:rgb(168,168,168)" /><path d="M 147,211 L 155,139" style="stroke:rgb(51,51,51)" /><path d=" M 320,193 L 147,211 L 155,139 Z" style="stroke:rgb(138,138,138); fill:rgb(138,138,138)" /><path d="M 147,211 L 155,139" style="stroke:rgb(51,51,51)" /><path d=" M 320,193 L 147,211 L 155,139 Z" style="stroke:rgb(107,107,107); fill:rgb(107,107,107)" /><path d="M 147,211 L 155,139" style="stroke:rgb(51,51,51)" /><path d=" M 320,193 L 216,203 L 155,139 Z" style="stroke:rgb(77,77,77); fill:rgb(77,77,77)" /><path d="M 216,203 L 155,139" style="stroke:rgb(51,51,51)" /><path d=" M 320,193 L 155,139 L 191,77 Z" style="stroke:rgb(230,230,230); fill:rgb(230,230,230)" /><path d="M 155,139 L 191,77" style="stroke:rgb(51,51,51)" /><path d=" M 320,193 L 155,139 L 191,77 Z" style="stroke:rgb(199,199,199); fill:rgb(199,199,199)" /><path d="M 155,139 L 191,77" style="stroke:rgb(51,51,51)" /><path d=" M 320,193 L 155,139 L 191,77 Z" style="stroke:rgb(168,168,168); fill:rgb(168,168,168)" /><path d="M 155,139 L 191,77" style="stroke:rgb(51,51,51)" /><path d=" M 320,193 L 155,139 L 191,77 Z" style="stroke:rgb(138,138,138); fill:rgb(138,138,138)" /><path d="M 155,139 L 191,77" style="stroke:rgb(51,51,51)" /><path d=" M 320,193 L 155,139 L 239,120 Z" style="stroke:rgb(107,107,107); fill:rgb(107,107,107)" /><path d="M 155,139 L 239,120" style="stroke:rgb(51,51,51)" /><path d=" M 320,193 L 155,139 L 287,164 Z" style="stroke:rgb(77,77,77); fill:rgb(77,77,77)" /><path d="M 155,139 L 287,164" style="stroke:rgb(51,51,51)" /><path d=" M 320,193 L 191,77 L 261,61 Z" style="stroke:rgb(230,230,230); fill:rgb(230,230,230)" /><path d="M 191,77 L 261,61" style="stroke:rgb(51,51,51)" /><path d=" M 320,193 L 191,77 L 261,61 Z" style="stroke:rgb(199,199,199); fill:rgb(199,199,199)" /><path d="M 191,77 L 261,61" style="stroke:rgb(51,51,51)" /><path d=" M 320,193 L 191,77 L 261,61 Z" style="stroke:rgb(168,168,168); fill:rgb(168,168,168)" /><path d="M 191,77 L 261,61" style="stroke:rgb(51,51,51)" /><path d=" M 320,193 L 191,77 L 261,61 Z" style="stroke:rgb(138,138,138); fill:rgb(138,138,138)" /><path d="M 191,77 L 261,61" style="stroke:rgb(51,51,51)" /><path d=" M 320,193 L 239,120 L 273,87 Z" style="stroke:rgb(107,107,107); fill:rgb(107,107,107)" /><path d="M 239,120 L 273,87" style="stroke:rgb(51,51,51)" /><path d=" M 320,193 L 287,164 L 308,166 Z" style="stroke:rgb(77,77,77); fill:rgb(77,77,77)" /><path d="M 287,164 L 308,166" style="stroke:rgb(51,51,51)" /><path d=" M 320,193 L 261,61 L 320,88 Z" style="stroke:rgb(230,230,230); fill:rgb(230,230,230)" /><path d="M 261,61 L 320,88" style="stroke:rgb(51,51,51)" /><path d=" M 320,193 L 261,61 L 320,88 Z" style="stroke:rgb(199,199,199); fill:rgb(199,199,199)" /><path d="M 261,61 L 320,88" style="stroke:rgb(51,51,51)" /><path d=" M 320,193 L 261,61 L 320,88 Z" style="stroke:rgb(168,168,168); fill:rgb(168,168,168)" /><path d="M 261,61 L 320,88" style="stroke:rgb(51,51,51)" /><path d=" M 320,193 L 261,61 L 320,88 Z" style="stroke:rgb(138,138,138); fill:rgb(138,138,138)" /><path d="M 261,61 L 320,88" style="stroke:rgb(51,51,51)" /><path d=" M 320,193 L 273,87 L 320,164 Z" style="stroke:rgb(107,107,107); fill:rgb(107,107,107)" /><path d="M 273,87 L 320,164" style="stroke:rgb(51,51,51)" /><path d=" M 320,193 L 308,166 L 320,179 Z" style="stroke:rgb(77,77,77); fill:rgb(77,77,77)" /><path d="M 308,166 L 320,179" style="stroke:rgb(51,51,51)" /><path d="M 320,193 L 320,20" style="stroke:rgb(51,51,51); stroke-width:1; stroke-dasharray:3" /><text x="322" y="20" style="fill: rgb(51,51,51)" >NumCls</text><path d="M 320,193 L 390,34" style="stroke:rgb(51,51,51); stroke-width:1; stroke-dasharray:3" /><text x="392" y="34" style="fill: rgb(51,51,51)" >NumCls_tc</text><path d="M 320,193 L 448,77" style="stroke:rgb(51,51,51); stroke-width:1; stroke-dasharray:3" /><text x="450" y="77" style="fill: rgb(51,51,51)" >NumOpsCls</text><path d="M 320,193 L 484,139" style="stroke:rgb(51,51,51); stroke-width:1; stroke-dasharray:3" /><text x="486" y="139" style="fill: rgb(51,51,51)" >NumInterf</text><path d="M 320,193 L 492,211" style="stroke:rgb(51,51,51); stroke-width:1; stroke-dasharray:3" /><text x="494" y="211" style="fill: rgb(51,51,51); baseline-shift: -100%" >R</text><path d="M 320,193 L 469,279" style="stroke:rgb(51,51,51); stroke-width:1; stroke-dasharray:3" /><text x="471" y="279" style="fill: rgb(51,51,51); baseline-shift: -100%" >H</text><path d="M 320,193 L 421,332" style="stroke:rgb(51,51,51); stroke-width:1; stroke-dasharray:3" /><text x="423" y="332" style="fill: rgb(51,51,51); baseline-shift: -100%" >Ca</text><path d="M 320,193 L 355,362" style="stroke:rgb(51,51,51); stroke-width:1; stroke-dasharray:3" /><text x="357" y="362" style="fill: rgb(51,51,51); baseline-shift: -100%" >Ce</text><path d="M 320,193 L 284,362" style="stroke:rgb(51,51,51); stroke-width:1; stroke-dasharray:3" /><text x="282" y="362" style="fill: rgb(51,51,51); text-anchor: end; baseline-shift: -100%" >I</text><path d="M 320,193 L 218,332" style="stroke:rgb(51,51,51); stroke-width:1; stroke-dasharray:3" /><text x="216" y="332" style="fill: rgb(51,51,51); text-anchor: end; baseline-shift: -100%" >A</text><path d="M 320,193 L 170,279" style="stroke:rgb(51,51,51); stroke-width:1; stroke-dasharray:3" /><text x="168" y="279" style="fill: rgb(51,51,51); text-anchor: end; baseline-shift: -100%" >D</text><path d="M 320,193 L 147,211" style="stroke:rgb(51,51,51); stroke-width:1; stroke-dasharray:3" /><text x="145" y="211" style="fill: rgb(51,51,51); text-anchor: end; baseline-shift: -100%" >DN</text><path d="M 320,193 L 155,139" style="stroke:rgb(51,51,51); stroke-width:1; stroke-dasharray:3" /><text x="153" y="139" style="fill: rgb(51,51,51); text-anchor: end" >Nesting</text><path d="M 320,193 L 191,77" style="stroke:rgb(51,51,51); stroke-width:1; stroke-dasharray:3" /><text x="189" y="77" style="fill: rgb(51,51,51); text-anchor: end" >ConnComp</text><path d="M 320,193 L 249,34" style="stroke:rgb(51,51,51); stroke-width:1; stroke-dasharray:3" /><text x="247" y="34" style="fill: rgb(51,51,51); text-anchor: end" >DepPack</text><path d="M 320,156 L 327,177" style="stroke:rgb(51,51,51); stroke-width:3" /><path d="M 327,177 L 376,141" style="stroke:rgb(51,51,51); stroke-width:3" /><path d="M 376,141 L 320,193" style="stroke:rgb(51,51,51); stroke-width:3" /><path d="M 320,193 L 337,194" style="stroke:rgb(51,51,51); stroke-width:3" /><path d="M 337,194 L 363,217" style="stroke:rgb(51,51,51); stroke-width:3" /><path d="M 363,217 L 321,195" style="stroke:rgb(51,51,51); stroke-width:3" /><path d="M 321,195 L 328,235" style="stroke:rgb(51,51,51); stroke-width:3" /><path d="M 328,235 L 293,319" style="stroke:rgb(51,51,51); stroke-width:3" /><path d="M 293,319 L 310,205" style="stroke:rgb(51,51,51); stroke-width:3" /><path d="M 310,205 L 257,229" style="stroke:rgb(51,51,51); stroke-width:3" /><path d="M 257,229 L 292,195" style="stroke:rgb(51,51,51); stroke-width:3" /><path d="M 292,195 L 155,139" style="stroke:rgb(51,51,51); stroke-width:3" /><path d="M 155,139 L 287,164" style="stroke:rgb(51,51,51); stroke-width:3" /><path d="M 287,164 L 296,140" style="stroke:rgb(51,51,51); stroke-width:3" /><path d="M 296,140 L 320,156" style="stroke:rgb(51,51,51); stroke-width:3" /></svg>