<?xml version="1.0" encoding="ISO-8859-1" ?>
<svg xmlns="http://www.w3.org/2000/svg"
     xmlns:xlink="http://www.w3.org/1999/xlink"
     version="1.1"
     baseProfile="full" width="640" height="400"><title>Kiviat diagram for +SDMetrics.com.sdmetrics.metrics.MetricProcedureCompound</title><desc>Kiviat diagram showing the metric values for element SDMetrics.com.sdmetrics.metrics.MetricProcedureCompound.</desc><text x="638" y="382" style="fill: rgb(51,51,51); text-anchor: end; baseline-shift: -100%; font-size: 12" >SDMetrics.com.sdmetrics.metrics.MetricProcedureCompound</text><path d=" M 320,193 L 320,59 L 372,40 Z" style="stroke:rgb(230,230,230); fill:rgb(230,230,230)" /><path d="M 320,59 L 372,40" style="stroke:rgb(51,51,51)" /><path d=" M 320,193 L 320,92 L 369,47 Z" style="stroke:rgb(199,199,199); fill:rgb(199,199,199)" /><path d="M 320,92 L 369,47" style="stroke:rgb(51,51,51)" /><path d=" M 320,193 L 320,146 L 365,59 Z" style="stroke:rgb(168,168,168); fill:rgb(168,168,168)" /><path d="M 320,146 L 365,59" style="stroke:rgb(51,51,51)" /><path d=" M 320,193 L 320,164 L 353,96 Z" style="stroke:rgb(138,138,138); fill:rgb(138,138,138)" /><path d="M 320,164 L 353,96" style="stroke:rgb(51,51,51)" /><path d=" M 320,193 L 320,174 L 340,133 Z" style="stroke:rgb(107,107,107); fill:rgb(107,107,107)" /><path d="M 320,174 L 340,133" style="stroke:rgb(51,51,51)" /><path d=" M 320,193 L 320,185 L 330,163 Z" style="stroke:rgb(77,77,77); fill:rgb(77,77,77)" /><path d="M 320,185 L 330,163" style="stroke:rgb(51,51,51)" /><path d=" M 320,193 L 372,40 L 412,73 Z" style="stroke:rgb(230,230,230); fill:rgb(230,230,230)" /><path d="M 372,40 L 412,73" style="stroke:rgb(51,51,51)" /><path d=" M 320,193 L 369,47 L 409,77 Z" style="stroke:rgb(199,199,199); fill:rgb(199,199,199)" /><path d="M 369,47 L 409,77" style="stroke:rgb(51,51,51)" /><path d=" M 320,193 L 365,59 L 396,94 Z" style="stroke:rgb(168,168,168); fill:rgb(168,168,168)" /><path d="M 365,59 L 396,94" style="stroke:rgb(51,51,51)" /><path d=" M 320,193 L 353,96 L 366,133 Z" style="stroke:rgb(138,138,138); fill:rgb(138,138,138)" /><path d="M 353,96 L 366,133" style="stroke:rgb(51,51,51)" /><path d=" M 320,193 L 340,133 L 346,158 Z" style="stroke:rgb(107,107,107); fill:rgb(107,107,107)" /><path d="M 340,133 L 346,158" style="stroke:rgb(51,51,51)" /><path d=" M 320,193 L 330,163 L 333,175 Z" style="stroke:rgb(77,77,77); fill:rgb(77,77,77)" /><path d="M 330,163 L 333,175" style="stroke:rgb(51,51,51)" /><path d=" M 320,193 L 412,73 L 428,122 Z" style="stroke:rgb(230,230,230); fill:rgb(230,230,230)" /><path d="M 412,73 L 428,122" style="stroke:rgb(51,51,51)" /><path d=" M 320,193 L 409,77 L 404,137 Z" style="stroke:rgb(199,199,199); fill:rgb(199,199,199)" /><path d="M 409,77 L 404,137" style="stroke:rgb(51,51,51)" /><path d=" M 320,193 L 396,94 L 368,161 Z" style="stroke:rgb(168,168,168); fill:rgb(168,168,168)" /><path d="M 396,94 L 368,161" style="stroke:rgb(51,51,51)" /><path d=" M 320,193 L 366,133 L 344,177 Z" style="stroke:rgb(138,138,138); fill:rgb(138,138,138)" /><path d="M 366,133 L 344,177" style="stroke:rgb(51,51,51)" /><path d=" M 320,193 L 346,158 L 320,193 Z" style="stroke:rgb(107,107,107); fill:rgb(107,107,107)" /><path d="M 346,158 L 320,193" style="stroke:rgb(51,51,51)" /><path d=" M 320,193 L 333,175 L 320,193 Z" style="stroke:rgb(77,77,77); fill:rgb(77,77,77)" /><path d="M 333,175 L 320,193" style="stroke:rgb(51,51,51)" /><path d=" M 320,193 L 428,122 L 448,160 Z" style="stroke:rgb(230,230,230); fill:rgb(230,230,230)" /><path d="M 428,122 L 448,160" style="stroke:rgb(51,51,51)" /><path d=" M 320,193 L 404,137 L 443,161 Z" style="stroke:rgb(199,199,199); fill:rgb(199,199,199)" /><path d="M 404,137 L 443,161" style="stroke:rgb(51,51,51)" /><path d=" M 320,193 L 368,161 L 413,169 Z" style="stroke:rgb(168,168,168); fill:rgb(168,168,168)" /><path d="M 368,161 L 413,169" style="stroke:rgb(51,51,51)" /><path d=" M 320,193 L 344,177 L 379,178 Z" style="stroke:rgb(138,138,138); fill:rgb(138,138,138)" /><path d="M 344,177 L 379,178" style="stroke:rgb(51,51,51)" /><path d=" M 320,193 L 320,193 L 349,185 Z" style="stroke:rgb(107,107,107); fill:rgb(107,107,107)" /><path d="M 320,193 L 349,185" style="stroke:rgb(51,51,51)" /><path d=" M 320,193 L 320,193 L 329,190 Z" style="stroke:rgb(77,77,77); fill:rgb(77,77,77)" /><path d="M 320,193 L 329,190" style="stroke:rgb(51,51,51)" /><path d=" M 320,193 L 448,160 L 492,207 Z" style="stroke:rgb(230,230,230); fill:rgb(230,230,230)" /><path d="M 448,160 L 492,207" style="stroke:rgb(51,51,51)" /><path d=" M 320,193 L 443,161 L 492,207 Z" style="stroke:rgb(199,199,199); fill:rgb(199,199,199)" /><path d="M 443,161 L 492,207" style="stroke:rgb(51,51,51)" /><path d=" M 320,193 L 413,169 L 492,207 Z" style="stroke:rgb(168,168,168); fill:rgb(168,168,168)" /><path d="M 413,169 L 492,207" style="stroke:rgb(51,51,51)" /><path d=" M 320,193 L 379,178 L 492,207 Z" style="stroke:rgb(138,138,138); fill:rgb(138,138,138)" /><path d="M 379,178 L 492,207" style="stroke:rgb(51,51,51)" /><path d=" M 320,193 L 349,185 L 320,193 Z" style="stroke:rgb(107,107,107); fill:rgb(107,107,107)" /><path d="M 349,185 L 320,193" style="stroke:rgb(51,51,51)" /><path d=" M 320,193 L 329,190 L 320,193 Z" style="stroke:rgb(77,77,77); fill:rgb(77,77,77)" /><path d="M 329,190 L 320,193" style="stroke:rgb(51,51,51)" /><path d=" M 320,193 L 492,207 L 478,262 Z" style="stroke:rgb(230,230,230); fill:rgb(230,230,230)" /><path d="M 492,207 L 478,262" style="stroke:rgb(51,51,51)" /><path d=" M 320,193 L 492,207 L 478,262 Z" style="stroke:rgb(199,199,199); fill:rgb(199,199,199)" /><path d="M 492,207 L 478,262" style="stroke:rgb(51,51,51)" /><path d=" M 320,193 L 492,207 L 399,227 Z" style="stroke:rgb(168,168,168); fill:rgb(168,168,168)" /><path d="M 492,207 L 399,227" style="stroke:rgb(51,51,51)" /><path d=" M 320,193 L 492,207 L 320,193 Z" style="stroke:rgb(138,138,138); fill:rgb(138,138,138)" /><path d="M 492,207 L 320,193" style="stroke:rgb(51,51,51)" /><path d=" M 320,193 L 320,193 L 320,193 Z" style="stroke:rgb(107,107,107); fill:rgb(107,107,107)" /><path d="M 320,193 L 320,193" style="stroke:rgb(51,51,51)" /><path d=" M 320,193 L 320,193 L 320,193 Z" style="stroke:rgb(77,77,77); fill:rgb(77,77,77)" /><path d="M 320,193 L 320,193" style="stroke:rgb(51,51,51)" /><path d=" M 320,193 L 478,262 L 373,241 Z" style="stroke:rgb(230,230,230); fill:rgb(230,230,230)" /><path d="M 478,262 L 373,241" style="stroke:rgb(51,51,51)" /><path d=" M 320,193 L 478,262 L 362,232 Z" style="stroke:rgb(199,199,199); fill:rgb(199,199,199)" /><path d="M 478,262 L 362,232" style="stroke:rgb(51,51,51)" /><path d=" M 320,193 L 399,227 L 351,222 Z" style="stroke:rgb(168,168,168); fill:rgb(168,168,168)" /><path d="M 399,227 L 351,222" style="stroke:rgb(51,51,51)" /><path d=" M 320,193 L 320,193 L 320,193 Z" style="stroke:rgb(138,138,138); fill:rgb(138,138,138)" /><path d="M 320,193 L 320,193" style="stroke:rgb(51,51,51)" /><path d=" M 320,193 L 320,193 L 320,193 Z" style="stroke:rgb(107,107,107); fill:rgb(107,107,107)" /><path d="M 320,193 L 320,193" style="stroke:rgb(51,51,51)" /><path d=" M 320,193 L 320,193 L 320,193 Z" style="stroke:rgb(77,77,77); fill:rgb(77,77,77)" /><path d="M 320,193 L 320,193" style="stroke:rgb(51,51,51)" /><path d=" M 320,193 L 373,241 L 353,255 Z" style="stroke:rgb(230,230,230); fill:rgb(230,230,230)" /><path d="M 373,241 L 353,255" style="stroke:rgb(51,51,51)" /><path d=" M 320,193 L 362,232 L 342,234 Z" style="stroke:rgb(199,199,199); fill:rgb(199,199,199)" /><path d="M 362,232 L 342,234" style="stroke:rgb(51,51,51)" /><path d=" M 320,193 L 351,222 L 333,217 Z" style="stroke:rgb(168,168,168); fill:rgb(168,168,168)" /><path d="M 351,222 L 333,217" style="stroke:rgb(51,51,51)" /><path d=" M 320,193 L 320,193 L 320,193 Z" style="stroke:rgb(138,138,138); fill:rgb(138,138,138)" /><path d="M 320,193 L 320,193" style="stroke:rgb(51,51,51)" /><path d=" M 320,193 L 320,193 L 320,193 Z" style="stroke:rgb(107,107,107); fill:rgb(107,107,107)" /><path d="M 320,193 L 320,193" style="stroke:rgb(51,51,51)" /><path d=" M 320,193 L 320,193 L 320,193 Z" style="stroke:rgb(77,77,77); fill:rgb(77,77,77)" /><path d="M 320,193 L 320,193" style="stroke:rgb(51,51,51)" /><path d=" M 320,193 L 353,255 L 348,363 Z" style="stroke:rgb(230,230,230); fill:rgb(230,230,230)" /><path d="M 353,255 L 348,363" style="stroke:rgb(51,51,51)" /><path d=" M 320,193 L 342,234 L 348,363 Z" style="stroke:rgb(199,199,199); fill:rgb(199,199,199)" /><path d="M 342,234 L 348,363" style="stroke:rgb(51,51,51)" /><path d=" M 320,193 L 333,217 L 348,363 Z" style="stroke:rgb(168,168,168); fill:rgb(168,168,168)" /><path d="M 333,217 L 348,363" style="stroke:rgb(51,51,51)" /><path d=" M 320,193 L 320,193 L 348,363 Z" style="stroke:rgb(138,138,138); fill:rgb(138,138,138)" /><path d="M 320,193 L 348,363" style="stroke:rgb(51,51,51)" /><path d=" M 320,193 L 320,193 L 334,278 Z" style="stroke:rgb(107,107,107); fill:rgb(107,107,107)" /><path d="M 320,193 L 334,278" style="stroke:rgb(51,51,51)" /><path d=" M 320,193 L 320,193 L 320,193 Z" style="stroke:rgb(77,77,77); fill:rgb(77,77,77)" /><path d="M 320,193 L 320,193" style="stroke:rgb(51,51,51)" /><path d=" M 320,193 L 348,363 L 291,363 Z" style="stroke:rgb(230,230,230); fill:rgb(230,230,230)" /><path d="M 348,363 L 291,363" style="stroke:rgb(51,51,51)" /><path d=" M 320,193 L 348,363 L 291,363 Z" style="stroke:rgb(199,199,199); fill:rgb(199,199,199)" /><path d="M 348,363 L 291,363" style="stroke:rgb(51,51,51)" /><path d=" M 320,193 L 348,363 L 291,363 Z" style="stroke:rgb(168,168,168); fill:rgb(168,168,168)" /><path d="M 348,363 L 291,363" style="stroke:rgb(51,51,51)" /><path d=" M 320,193 L 348,363 L 291,363 Z" style="stroke:rgb(138,138,138); fill:rgb(138,138,138)" /><path d="M 348,363 L 291,363" style="stroke:rgb(51,51,51)" /><path d=" M 320,193 L 334,278 L 305,278 Z" style="stroke:rgb(107,107,107); fill:rgb(107,107,107)" /><path d="M 334,278 L 305,278" style="stroke:rgb(51,51,51)" /><path d=" M 320,193 L 320,193 L 320,193 Z" style="stroke:rgb(77,77,77); fill:rgb(77,77,77)" /><path d="M 320,193 L 320,193" style="stroke:rgb(51,51,51)" /><path d=" M 320,193 L 291,363 L 237,345 Z" style="stroke:rgb(230,230,230); fill:rgb(230,230,230)" /><path d="M 291,363 L 237,345" style="stroke:rgb(51,51,51)" /><path d=" M 320,193 L 291,363 L 258,307 Z" style="stroke:rgb(199,199,199); fill:rgb(199,199,199)" /><path d="M 291,363 L 258,307" style="stroke:rgb(51,51,51)" /><path d=" M 320,193 L 291,363 L 278,269 Z" style="stroke:rgb(168,168,168); fill:rgb(168,168,168)" /><path d="M 291,363 L 278,269" style="stroke:rgb(51,51,51)" /><path d=" M 320,193 L 291,363 L 320,193 Z" style="stroke:rgb(138,138,138); fill:rgb(138,138,138)" /><path d="M 291,363 L 320,193" style="stroke:rgb(51,51,51)" /><path d=" M 320,193 L 305,278 L 320,193 Z" style="stroke:rgb(107,107,107); fill:rgb(107,107,107)" /><path d="M 305,278 L 320,193" style="stroke:rgb(51,51,51)" /><path d=" M 320,193 L 320,193 L 320,193 Z" style="stroke:rgb(77,77,77); fill:rgb(77,77,77)" /><path d="M 320,193 L 320,193" style="stroke:rgb(51,51,51)" /><path d=" M 320,193 L 237,345 L 223,281 Z" style="stroke:rgb(230,230,230); fill:rgb(230,230,230)" /><path d="M 237,345 L 223,281" style="stroke:rgb(51,51,51)" /><path d=" M 320,193 L 258,307 L 235,271 Z" style="stroke:rgb(199,199,199); fill:rgb(199,199,199)" /><path d="M 258,307 L 235,271" style="stroke:rgb(51,51,51)" /><path d=" M 320,193 L 278,269 L 246,260 Z" style="stroke:rgb(168,168,168); fill:rgb(168,168,168)" /><path d="M 278,269 L 246,260" style="stroke:rgb(51,51,51)" /><path d=" M 320,193 L 320,193 L 266,242 Z" style="stroke:rgb(138,138,138); fill:rgb(138,138,138)" /><path d="M 320,193 L 266,242" style="stroke:rgb(51,51,51)" /><path d=" M 320,193 L 320,193 L 269,239 Z" style="stroke:rgb(107,107,107); fill:rgb(107,107,107)" /><path d="M 320,193 L 269,239" style="stroke:rgb(51,51,51)" /><path d=" M 320,193 L 320,193 L 320,193 Z" style="stroke:rgb(77,77,77); fill:rgb(77,77,77)" /><path d="M 320,193 L 320,193" style="stroke:rgb(51,51,51)" /><path d=" M 320,193 L 223,281 L 161,262 Z" style="stroke:rgb(230,230,230); fill:rgb(230,230,230)" /><path d="M 223,281 L 161,262" style="stroke:rgb(51,51,51)" /><path d=" M 320,193 L 235,271 L 161,262 Z" style="stroke:rgb(199,199,199); fill:rgb(199,199,199)" /><path d="M 235,271 L 161,262" style="stroke:rgb(51,51,51)" /><path d=" M 320,193 L 246,260 L 161,262 Z" style="stroke:rgb(168,168,168); fill:rgb(168,168,168)" /><path d="M 246,260 L 161,262" style="stroke:rgb(51,51,51)" /><path d=" M 320,193 L 266,242 L 280,210 Z" style="stroke:rgb(138,138,138); fill:rgb(138,138,138)" /><path d="M 266,242 L 280,210" style="stroke:rgb(51,51,51)" /><path d=" M 320,193 L 269,239 L 280,210 Z" style="stroke:rgb(107,107,107); fill:rgb(107,107,107)" /><path d="M 269,239 L 280,210" style="stroke:rgb(51,51,51)" /><path d=" M 320,193 L 320,193 L 320,193 Z" style="stroke:rgb(77,77,77); fill:rgb(77,77,77)" /><path d="M 320,193 L 320,193" style="stroke:rgb(51,51,51)" /><path d=" M 320,193 L 161,262 L 225,200 Z" style="stroke:rgb(230,230,230); fill:rgb(230,230,230)" /><path d="M 161,262 L 225,200" style="stroke:rgb(51,51,51)" /><path d=" M 320,193 L 161,262 L 251,198 Z" style="stroke:rgb(199,199,199); fill:rgb(199,199,199)" /><path d="M 161,262 L 251,198" style="stroke:rgb(51,51,51)" /><path d=" M 320,193 L 161,262 L 268,197 Z" style="stroke:rgb(168,168,168); fill:rgb(168,168,168)" /><path d="M 161,262 L 268,197" style="stroke:rgb(51,51,51)" /><path d=" M 320,193 L 280,210 L 285,195 Z" style="stroke:rgb(138,138,138); fill:rgb(138,138,138)" /><path d="M 280,210 L 285,195" style="stroke:rgb(51,51,51)" /><path d=" M 320,193 L 280,210 L 302,194 Z" style="stroke:rgb(107,107,107); fill:rgb(107,107,107)" /><path d="M 280,210 L 302,194" style="stroke:rgb(51,51,51)" /><path d=" M 320,193 L 320,193 L 320,193 Z" style="stroke:rgb(77,77,77); fill:rgb(77,77,77)" /><path d="M 320,193 L 320,193" style="stroke:rgb(51,51,51)" /><path d=" M 320,193 L 225,200 L 213,165 Z" style="stroke:rgb(230,230,230); fill:rgb(230,230,230)" /><path d="M 225,200 L 213,165" style="stroke:rgb(51,51,51)" /><path d=" M 320,193 L 251,198 L 228,169 Z" style="stroke:rgb(199,199,199); fill:rgb(199,199,199)" /><path d="M 251,198 L 228,169" style="stroke:rgb(51,51,51)" /><path d=" M 320,193 L 268,197 L 259,177 Z" style="stroke:rgb(168,168,168); fill:rgb(168,168,168)" /><path d="M 268,197 L 259,177" style="stroke:rgb(51,51,51)" /><path d=" M 320,193 L 285,195 L 274,181 Z" style="stroke:rgb(138,138,138); fill:rgb(138,138,138)" /><path d="M 285,195 L 274,181" style="stroke:rgb(51,51,51)" /><path d=" M 320,193 L 302,194 L 289,185 Z" style="stroke:rgb(107,107,107); fill:rgb(107,107,107)" /><path d="M 302,194 L 289,185" style="stroke:rgb(51,51,51)" /><path d=" M 320,193 L 320,193 L 304,189 Z" style="stroke:rgb(77,77,77); fill:rgb(77,77,77)" /><path d="M 320,193 L 304,189" style="stroke:rgb(51,51,51)" /><path d=" M 320,193 L 213,165 L 196,112 Z" style="stroke:rgb(230,230,230); fill:rgb(230,230,230)" /><path d="M 213,165 L 196,112" style="stroke:rgb(51,51,51)" /><path d=" M 320,193 L 228,169 L 233,136 Z" style="stroke:rgb(199,199,199); fill:rgb(199,199,199)" /><path d="M 228,169 L 233,136" style="stroke:rgb(51,51,51)" /><path d=" M 320,193 L 259,177 L 276,164 Z" style="stroke:rgb(168,168,168); fill:rgb(168,168,168)" /><path d="M 259,177 L 276,164" style="stroke:rgb(51,51,51)" /><path d=" M 320,193 L 274,181 L 291,174 Z" style="stroke:rgb(138,138,138); fill:rgb(138,138,138)" /><path d="M 274,181 L 291,174" style="stroke:rgb(51,51,51)" /><path d=" M 320,193 L 289,185 L 305,183 Z" style="stroke:rgb(107,107,107); fill:rgb(107,107,107)" /><path d="M 289,185 L 305,183" style="stroke:rgb(51,51,51)" /><path d=" M 320,193 L 304,189 L 320,193 Z" style="stroke:rgb(77,77,77); fill:rgb(77,77,77)" /><path d="M 304,189 L 320,193" style="stroke:rgb(51,51,51)" /><path d=" M 320,193 L 196,112 L 278,139 Z" style="stroke:rgb(230,230,230); fill:rgb(230,230,230)" /><path d="M 196,112 L 278,139" style="stroke:rgb(51,51,51)" /><path d=" M 320,193 L 233,136 L 288,152 Z" style="stroke:rgb(199,199,199); fill:rgb(199,199,199)" /><path d="M 233,136 L 288,152" style="stroke:rgb(51,51,51)" /><path d=" M 320,193 L 276,164 L 304,173 Z" style="stroke:rgb(168,168,168); fill:rgb(168,168,168)" /><path d="M 276,164 L 304,173" style="stroke:rgb(51,51,51)" /><path d=" M 320,193 L 291,174 L 313,184 Z" style="stroke:rgb(138,138,138); fill:rgb(138,138,138)" /><path d="M 291,174 L 313,184" style="stroke:rgb(51,51,51)" /><path d=" M 320,193 L 305,183 L 318,191 Z" style="stroke:rgb(107,107,107); fill:rgb(107,107,107)" /><path d="M 305,183 L 318,191" style="stroke:rgb(51,51,51)" /><path d=" M 320,193 L 320,193 L 320,193 Z" style="stroke:rgb(77,77,77); fill:rgb(77,77,77)" /><path d="M 320,193 L 320,193" style="stroke:rgb(51,51,51)" /><path d=" M 320,193 L 278,139 L 280,76 Z" style="stroke:rgb(230,230,230); fill:rgb(230,230,230)" /><path d="M 278,139 L 280,76" style="stroke:rgb(51,51,51)" /><path d=" M 320,193 L 288,152 L 286,95 Z" style="stroke:rgb(199,199,199); fill:rgb(199,199,199)" /><path d="M 288,152 L 286,95" style="stroke:rgb(51,51,51)" /><path d=" M 320,193 L 304,173 L 298,129 Z" style="stroke:rgb(168,168,168); fill:rgb(168,168,168)" /><path d="M 304,173 L 298,129" style="stroke:rgb(51,51,51)" /><path d=" M 320,193 L 313,184 L 305,150 Z" style="stroke:rgb(138,138,138); fill:rgb(138,138,138)" /><path d="M 313,184 L 305,150" style="stroke:rgb(51,51,51)" /><path d=" M 320,193 L 318,191 L 312,171 Z" style="stroke:rgb(107,107,107); fill:rgb(107,107,107)" /><path d="M 318,191 L 312,171" style="stroke:rgb(51,51,51)" /><path d=" M 320,193 L 320,193 L 316,182 Z" style="stroke:rgb(77,77,77); fill:rgb(77,77,77)" /><path d="M 320,193 L 316,182" style="stroke:rgb(51,51,51)" /><path d=" M 320,193 L 280,76 L 320,59 Z" style="stroke:rgb(230,230,230); fill:rgb(230,230,230)" /><path d="M 280,76 L 320,59" style="stroke:rgb(51,51,51)" /><path d=" M 320,193 L 286,95 L 320,92 Z" style="stroke:rgb(199,199,199); fill:rgb(199,199,199)" /><path d="M 286,95 L 320,92" style="stroke:rgb(51,51,51)" /><path d=" M 320,193 L 298,129 L 320,146 Z" style="stroke:rgb(168,168,168); fill:rgb(168,168,168)" /><path d="M 298,129 L 320,146" style="stroke:rgb(51,51,51)" /><path d=" M 320,193 L 305,150 L 320,164 Z" style="stroke:rgb(138,138,138); fill:rgb(138,138,138)" /><path d="M 305,150 L 320,164" style="stroke:rgb(51,51,51)" /><path d=" M 320,193 L 312,171 L 320,174 Z" style="stroke:rgb(107,107,107); fill:rgb(107,107,107)" /><path d="M 312,171 L 320,174" style="stroke:rgb(51,51,51)" /><path d=" M 320,193 L 316,182 L 320,185 Z" style="stroke:rgb(77,77,77); fill:rgb(77,77,77)" /><path d="M 316,182 L 320,185" style="stroke:rgb(51,51,51)" /><path d="M 320,193 L 320,20" style="stroke:rgb(51,51,51); stroke-width:1; stroke-dasharray:3" /><text x="322" y="20" style="fill: rgb(51,51,51)" >NumAttr</text><path d="M 320,193 L 376,29" style="stroke:rgb(51,51,51); stroke-width:1; stroke-dasharray:3" /><text x="378" y="29" style="fill: rgb(51,51,51)" >NumOps</text><path d="M 320,193 L 426,56" style="stroke:rgb(51,51,51); stroke-width:1; stroke-dasharray:3" /><text x="428" y="56" style="fill: rgb(51,51,51)" >NumPubOps</text><path d="M 320,193 L 464,98" style="stroke:rgb(51,51,51); stroke-width:1; stroke-dasharray:3" /><text x="466" y="98" style="fill: rgb(51,51,51)" >Setters</text><path d="M 320,193 L 487,150" style="stroke:rgb(51,51,51); stroke-width:1; stroke-dasharray:3" /><text x="489" y="150" style="fill: rgb(51,51,51)" >Getters</text><path d="M 320,193 L 492,207" style="stroke:rgb(51,51,51); stroke-width:1; stroke-dasharray:3" /><text x="494" y="207" style="fill: rgb(51,51,51); baseline-shift: -100%" >Nesting</text><path d="M 320,193 L 478,262" style="stroke:rgb(51,51,51); stroke-width:1; stroke-dasharray:3" /><text x="480" y="262" style="fill: rgb(51,51,51); baseline-shift: -100%" >IFImpl</text><path d="M 320,193 L 447,310" style="stroke:rgb(51,51,51); stroke-width:1; stroke-dasharray:3" /><text x="449" y="310" style="fill: rgb(51,51,51); baseline-shift: -100%" >NOC</text><path d="M 320,193 L 402,345" style="stroke:rgb(51,51,51); stroke-width:1; stroke-dasharray:3" /><text x="404" y="345" style="fill: rgb(51,51,51); baseline-shift: -100%" >NumDesc</text><path d="M 320,193 L 348,363" style="stroke:rgb(51,51,51); stroke-width:1; stroke-dasharray:3" /><text x="350" y="363" style="fill: rgb(51,51,51); baseline-shift: -100%" >NumAnc</text><path d="M 320,193 L 291,363" style="stroke:rgb(51,51,51); stroke-width:1; stroke-dasharray:3" /><text x="289" y="363" style="fill: rgb(51,51,51); text-anchor: end; baseline-shift: -100%" >DIT</text><path d="M 320,193 L 237,345" style="stroke:rgb(51,51,51); stroke-width:1; stroke-dasharray:3" /><text x="235" y="345" style="fill: rgb(51,51,51); text-anchor: end; baseline-shift: -100%" >CLD</text><path d="M 320,193 L 192,310" style="stroke:rgb(51,51,51); stroke-width:1; stroke-dasharray:3" /><text x="190" y="310" style="fill: rgb(51,51,51); text-anchor: end; baseline-shift: -100%" >OpsInh</text><path d="M 320,193 L 161,262" style="stroke:rgb(51,51,51); stroke-width:1; stroke-dasharray:3" /><text x="159" y="262" style="fill: rgb(51,51,51); text-anchor: end; baseline-shift: -100%" >AttrInh</text><path d="M 320,193 L 147,207" style="stroke:rgb(51,51,51); stroke-width:1; stroke-dasharray:3" /><text x="145" y="207" style="fill: rgb(51,51,51); text-anchor: end; baseline-shift: -100%" >NumAssEl_ssc</text><path d="M 320,193 L 152,150" style="stroke:rgb(51,51,51); stroke-width:1; stroke-dasharray:3" /><text x="150" y="150" style="fill: rgb(51,51,51); text-anchor: end" >NumAssEl_sb</text><path d="M 320,193 L 175,98" style="stroke:rgb(51,51,51); stroke-width:1; stroke-dasharray:3" /><text x="173" y="98" style="fill: rgb(51,51,51); text-anchor: end" >NumAssEl_nsb</text><path d="M 320,193 L 213,56" style="stroke:rgb(51,51,51); stroke-width:1; stroke-dasharray:3" /><text x="211" y="56" style="fill: rgb(51,51,51); text-anchor: end" >EC_Par</text><path d="M 320,193 L 263,29" style="stroke:rgb(51,51,51); stroke-width:1; stroke-dasharray:3" /><text x="261" y="29" style="fill: rgb(51,51,51); text-anchor: end" >IC_Par</text><path d="M 320,193 L 322,185" style="stroke:rgb(51,51,51); stroke-width:3" /><path d="M 322,185 L 326,184" style="stroke:rgb(51,51,51); stroke-width:3" /><path d="M 326,184 L 320,193" style="stroke:rgb(51,51,51); stroke-width:3" /><path d="M 320,193 L 320,193" style="stroke:rgb(51,51,51); stroke-width:3" /><path d="M 320,193 L 320,193" style="stroke:rgb(51,51,51); stroke-width:3" /><path d="M 320,193 L 320,193" style="stroke:rgb(51,51,51); stroke-width:3" /><path d="M 320,193 L 320,193" style="stroke:rgb(51,51,51); stroke-width:3" /><path d="M 320,193 L 320,193" style="stroke:rgb(51,51,51); stroke-width:3" /><path d="M 320,193 L 348,363" style="stroke:rgb(51,51,51); stroke-width:3" /><path d="M 348,363 L 291,363" style="stroke:rgb(51,51,51); stroke-width:3" /><path d="M 291,363 L 320,193" style="stroke:rgb(51,51,51); stroke-width:3" /><path d="M 320,193 L 266,242" style="stroke:rgb(51,51,51); stroke-width:3" /><path d="M 266,242 L 280,210" style="stroke:rgb(51,51,51); stroke-width:3" /><path d="M 280,210 L 320,193" style="stroke:rgb(51,51,51); stroke-width:3" /><path d="M 320,193 L 320,193" style="stroke:rgb(51,51,51); stroke-width:3" /><path d="M 320,193 L 320,193" style="stroke:rgb(51,51,51); stroke-width:3" /><path d="M 320,193 L 320,193" style="stroke:rgb(51,51,51); stroke-width:3" /><path d="M 320,193 L 316,182" style="stroke:rgb(51,51,51); stroke-width:3" /><path d="M 316,182 L 320,193" style="stroke:rgb(51,51,51); stroke-width:3" /></svg>